<svg width="54" height="54" viewBox="0 0 54 54" fill="none" xmlns="http://www.w3.org/2000/svg">
<g clip-path="url(#clip0_2_29)">
<path d="M48.375 20.25V42.75M12.375 20.25V42.75M5.625 20.25V42.75M41.625 20.25V42.75M4.5 47.25H49.5M0 52.875H54M27 24.75H24.75C24.1533 24.75 23.581 24.9871 23.159 25.409C22.7371 25.831 22.5 26.4033 22.5 27V27.8437C22.5 28.3306 22.6579 28.8043 22.95 29.1937C23.2421 29.5832 23.6526 29.8674 24.12 30.0037L29.88 31.6845C30.3474 31.8208 30.7579 32.105 31.05 32.4945C31.3421 32.884 31.5 33.3577 31.5 33.8445V36C31.5 36.5967 31.2629 37.169 30.841 37.591C30.419 38.0129 29.8467 38.25 29.25 38.25H27M27 24.75H29.25C29.8467 24.75 30.419 24.9871 30.841 25.409C31.2629 25.831 31.5 26.4033 31.5 27V28.125M27 24.75V20.25M27 38.25H24.75C24.1533 38.25 23.581 38.0129 23.159 37.591C22.7371 37.169 22.5 36.5967 22.5 36V34.875M27 38.25V42.75M52.875 14.0625V15.75H1.125V14.0625C12.375 10.125 19.125 6.75 26.4375 1.125H27.5625C34.875 6.75 41.625 10.125 52.875 14.0625Z" stroke="white"/>
</g>
<defs>
<clipPath id="clip0_2_29">
<rect width="54" height="54" fill="white"/>
</clipPath>
</defs>
</svg>
