<svg width="54" height="54" viewBox="0 0 54 54" fill="none" xmlns="http://www.w3.org/2000/svg">
<path d="M27 28.125C24.9114 28.125 22.9084 28.9547 21.4315 30.4315C19.9547 31.9084 19.125 33.9114 19.125 36C19.125 38.0886 19.9547 40.0916 21.4315 41.5685C22.9084 43.0453 24.9114 43.875 27 43.875C29.0886 43.875 31.0916 43.0453 32.5685 41.5685C34.0453 40.0916 34.875 38.0886 34.875 36C34.875 33.9114 34.0453 31.9084 32.5685 30.4315C31.0916 28.9547 29.0886 28.125 27 28.125ZM23.625 36C23.625 35.1049 23.9806 34.2465 24.6135 33.6135C25.2465 32.9806 26.1049 32.625 27 32.625C27.8951 32.625 28.7536 32.9806 29.3865 33.6135C30.0194 34.2465 30.375 35.1049 30.375 36C30.375 36.8951 30.0194 37.7536 29.3865 38.3865C28.7536 39.0194 27.8951 39.375 27 39.375C26.1049 39.375 25.2465 39.0194 24.6135 38.3865C23.9806 37.7536 23.625 36.8951 23.625 36Z" fill="white"/>
<path d="M39.4335 11.511L32.2808 1.48275L5.9805 22.4933L4.5225 22.4775V22.5H3.375V49.5H50.625V22.5H48.4605L44.154 9.90225L39.4335 11.511ZM43.7062 22.5H21.1433L37.9485 16.7715L41.373 15.6758L43.7062 22.5ZM34.9875 13.0275L17.64 18.9405L31.3785 7.965L34.9875 13.0275ZM7.875 40.8803V31.1153C8.82489 30.78 9.68771 30.2364 10.4002 29.5243C11.1127 28.8122 11.6567 27.9497 11.9925 27H42.0075C42.343 27.9501 42.8869 28.8131 43.5994 29.5256C44.3119 30.2381 45.1749 30.782 46.125 31.1175V40.8825C45.1749 41.218 44.3119 41.7619 43.5994 42.4744C42.8869 43.1869 42.343 44.0499 42.0075 45H11.997C11.6599 44.0498 11.1149 43.1868 10.4018 42.4741C9.68867 41.7613 8.8254 41.2168 7.875 40.8803Z" fill="white"/>
</svg>
